<svg xmlns="http://www.w3.org/2000/svg" width="29.464" height="20.627" viewBox="0 0 29.464 20.627">
  <path id="bx_bxl-youtube" d="M30.85,8.243a3.69,3.69,0,0,0-2.594-2.6C25.951,5.01,16.728,5,16.728,5S7.506,4.99,5.2,5.595A3.769,3.769,0,0,0,2.6,8.212,39.007,39.007,0,0,0,1.986,15.3a38.768,38.768,0,0,0,.6,7.087,3.689,3.689,0,0,0,2.6,2.6c2.329.633,11.527.643,11.527.643s9.223.01,11.528-.593a3.7,3.7,0,0,0,2.6-2.6,38.832,38.832,0,0,0,.614-7.084,36.926,36.926,0,0,0-.6-7.112ZM13.778,19.729l.007-8.833,7.665,4.424-7.673,4.409Z" transform="translate(-1.986 -5)" fill="#003566"/>
</svg>
