<svg xmlns="http://www.w3.org/2000/svg" width="27.83" height="23.191" viewBox="0 0 27.83 23.191">
  <path id="el_twitter" d="M27.83,21.465a7.472,7.472,0,0,1-1.039,1.489,7.653,7.653,0,0,1-1.877,1.582q.031.248.047.465a16.882,16.882,0,0,1-1.195,6.469,17.032,17.032,0,0,1-6.779,8.424A17.828,17.828,0,0,1,6.376,41.833,12.19,12.19,0,0,1,0,39.367a11.882,11.882,0,0,0,8.5-2.451c-2.608.066-4.5-1.821-5.4-4a3.638,3.638,0,0,0,1.21.062,11.221,11.221,0,0,0,1.365-.186A6.4,6.4,0,0,1,1.8,29.78a6.487,6.487,0,0,1-.652-2.854,5.455,5.455,0,0,0,2.575.776A6.654,6.654,0,0,1,1.195,23.59a7.612,7.612,0,0,1,.7-3.708,19.515,19.515,0,0,0,6.624,4.964,13.712,13.712,0,0,0,5.2,1.086,6.946,6.946,0,0,1,.7-4.406A6,6,0,0,1,18,18.921,5.29,5.29,0,0,1,23.3,20.565,9.445,9.445,0,0,0,26.993,19.2a5.6,5.6,0,0,1-2.544,3.289,16.087,16.087,0,0,0,3.382-1.024Z" transform="translate(0 -18.752)" fill="#003566"/>
</svg>
