<svg xmlns="http://www.w3.org/2000/svg" width="114.365" height="114.143" viewBox="0 0 114.365 114.143">
  <g id="Group_1760" data-name="Group 1760" transform="translate(-1101.97 -425.995)">
    <path id="Path_2233" data-name="Path 2233" d="M1200.32,531.05v.691C1200.32,531.512,1200.326,531.282,1200.32,531.05Zm0,0v.691C1200.32,531.512,1200.326,531.282,1200.32,531.05Z" transform="translate(-69.059 -73.767)" fill="#003566"/>
    <path id="Path_2234" data-name="Path 2234" d="M1216.091,439.217a8.411,8.411,0,0,0-8.211-6.293c-5.429-.018-10.862-.006-16.294-.006h-1.278a8.646,8.646,0,0,0-2.945-5,8.021,8.021,0,0,0-5.221-1.918q-22.989,0-45.978.006c-3.946,0-7.056,2.627-8.169,6.916h-1.165q-7.979,0-15.958,0c-4.491,0-7.476,2.272-8.72,6.624a1.089,1.089,0,0,1-.182.268V509.6a5.469,5.469,0,0,1,.241.6,8.419,8.419,0,0,0,8.217,6.29q17.8.018,35.608.006h1.429v7.985a28.741,28.741,0,0,0-3.029.625,9.671,9.671,0,0,0-6.752,8.783c-.042.816.027,1.638-.051,2.448a3.567,3.567,0,0,0,1.862,3.806h39.313a3.732,3.732,0,0,0,1.874-3.809c-.074-2.156.006-4.312-1.051-6.3a10,10,0,0,0-8.8-5.471v-8.071h1.12q6.924,0,13.852,0v.06h15.353v-.057c2.165,0,4.336.14,6.5,0,8.116-.536,8.616-6.767,8.688-6.892V439.813A4.88,4.88,0,0,1,1216.091,439.217Zm-25.613,3.824H1206.2v63.312h-15.722V443.041Zm-59.2-8.783a5.069,5.069,0,0,1,5.17-4.926c.259-.006.521,0,.78,0h43.885c3.958,0,5.93,1.942,5.93,5.852V506.35h-55.78V504.9q0-21.256,0-42.521v-13.4c.006-.077.006-.155.006-.232q-.018-6.688,0-13.375C1131.264,435,1131.249,434.628,1131.276,434.258Zm-3.38,23.54V506.35h-15.812V443.032H1127.9c0,1.343-.009,2.669-.009,3.991V457.34c0,.152.009.307.009.459Zm43.036,70.245a6.271,6.271,0,0,1,6.332,6.4c.009.739,0,1.474,0,2.284h-36.135a20.421,20.421,0,0,1,.033-3.5,6.175,6.175,0,0,1,6.21-5.179Q1159.154,527.986,1170.932,528.044Zm-19.975-10.355c0-.363.03-.724.048-1.141h16.27v7.97h-16.321C1150.953,522.194,1150.95,519.94,1150.957,517.688Zm62.031-10.245c0,3.636-2.028,5.668-5.656,5.677-2.791.006-5.581-.006-8.375,0a3.909,3.909,0,0,0-.64.051h-7.434l-.048-.009a10.176,10.176,0,0,0-1.447-.042h-78.057c-4.1,0-6.016-1.9-6.016-5.986v-64.98c0-3.919,1.96-5.864,5.912-5.864h16.586v3.318h-1.147q-7.429,0-14.853,0c-2.192,0-3.139.938-3.139,3.1V506.68c0,2.174.941,3.121,3.115,3.121h94.693c2.189,0,3.145-.941,3.145-3.094q0-31.986,0-63.976c0-2.18-.935-3.121-3.109-3.121q-7.371-.009-14.742,0h-1.29v-3.318h1.043q7.929,0,15.856,0c3.553,0,5.6,2.058,5.6,5.614v65.537Z" fill="#003566"/>
    <path id="Path_2235" data-name="Path 2235" d="M1221.99,480.991a21.439,21.439,0,1,1,21.315,21.494A21.387,21.387,0,0,1,1221.99,480.991Zm3.345.045a18.095,18.095,0,1,0,18.173-18.009,18.185,18.185,0,0,0-18.173,18.009Z" transform="translate(-84.275 -23.66)" fill="#003566"/>
    <path id="Path_2236" data-name="Path 2236" d="M1244.716,632.2c-6.326,0-12.652-.009-18.977.009-.935,0-1.73-.328-1.841-1.233a2.646,2.646,0,0,1,.691-1.8c.259-.3.959-.295,1.462-.295q18.026-.022,36.055-.012c.521,0,1.042,0,1.564,0,1.3.012,2.064.625,2.07,1.656s-.765,1.677-2.049,1.677q-9.489.009-18.977,0Z" transform="translate(-85.609 -142.45)" fill="#003566"/>
    <path id="Path_2237" data-name="Path 2237" d="M1244.5,662.534c6.287,0,12.577-.018,18.864.03a2.687,2.687,0,0,1,1.751.682,1.606,1.606,0,0,1-.971,2.591,4.42,4.42,0,0,1-.891.033h-37.505c-.185,0-.372.009-.557,0a1.678,1.678,0,0,1-1.668-1.719,1.641,1.641,0,0,1,1.662-1.6c1.56-.033,3.124-.012,4.688-.012H1244.5Z" transform="translate(-85.354 -166.087)" fill="#003566"/>
    <path id="Path_2238" data-name="Path 2238" d="M1260.008,505.85c2.665-2.671,5.125-5.146,7.6-7.612a4.982,4.982,0,0,1,4.548-1.57,4.74,4.74,0,0,1,3.9,3.246,4.644,4.644,0,0,1-1.007,5.072c-3.553,3.648-7.139,7.27-10.814,10.793a5.967,5.967,0,0,1-8.378-.068c-1.331-1.242-2.621-2.535-3.869-3.86a4.956,4.956,0,0,1,.089-7.1,5.1,5.1,0,0,1,7.133.107,10.662,10.662,0,0,1,.8.992Zm.179,8.414a12.431,12.431,0,0,0,2.159-1.367c2.776-2.689,5.489-5.444,8.226-8.175.658-.655,1.349-1.284,1.96-1.98a1.546,1.546,0,0,0,.012-2.219,1.6,1.6,0,0,0-2.222-.167,4.494,4.494,0,0,0-.738.673c-2.552,2.546-5.1,5.1-7.66,7.636a2.371,2.371,0,0,1-3.639.018c-.488-.459-.935-.959-1.43-1.406a1.692,1.692,0,0,0-2.4-.1,1.635,1.635,0,0,0,.116,2.466c1.167,1.2,2.323,2.412,3.568,3.523a10.452,10.452,0,0,0,2.046,1.1Z" transform="translate(-104.319 -49.57)" fill="#003566"/>
    <path id="Path_2239" data-name="Path 2239" d="M1189,531.7v4.578h-.009V531.24C1188.993,531.392,1189,531.547,1189,531.7Z" transform="translate(-61.103 -73.9)" fill="#003566"/>
  </g>
</svg>
