<svg xmlns="http://www.w3.org/2000/svg" width="98.971" height="90.87" viewBox="0 0 98.971 90.87">
  <g id="Group_1758" data-name="Group 1758" transform="translate(-382.169 -755.131)">
    <path id="Path_2222" data-name="Path 2222" d="M527.272,770.144c-.669.808-1.277,1.673-2.011,2.412q-21.717,21.751-43.456,43.475c-.25.25-.5.508-.758.746a3.065,3.065,0,0,1-4.493-.05q-9.208-9.173-18.386-18.382a3.076,3.076,0,0,1-.1-4.489,3.125,3.125,0,0,1,4.566.162q7.7,7.673,15.382,15.374c.25.25.465.535.739.85.362-.346.638-.6.9-.862q20.949-20.943,41.887-41.9a3.394,3.394,0,0,1,3.623-1.177,3.745,3.745,0,0,1,2.112,2.108v1.738Z" transform="translate(-46.136 -6.778)" fill="#003566"/>
    <path id="Path_2223" data-name="Path 2223" d="M472.963,800.906c-.5,15.612-7.085,28.352-20.317,37.429A43.389,43.389,0,0,1,424,845.847a45.349,45.349,0,0,1-14.066-87.009c14.435-5.973,28.471-4.658,41.852,3.435a3.077,3.077,0,0,1,1.589,3.339,2.9,2.9,0,0,1-2.716,2.466,4.216,4.216,0,0,1-2.25-.619,38.571,38.571,0,0,0-13.666-5.308c-12.816-2.2-24.128,1.035-33.756,9.758a36.508,36.508,0,0,0-12.147,22.99c-2.008,16.185,3.835,29.105,17.236,38.4a37.014,37.014,0,0,0,23.786,6.408,39.144,39.144,0,0,0,34.852-26.832,38.13,38.13,0,0,0,1.8-15.7,3.24,3.24,0,0,1,1.823-3.5,2.951,2.951,0,0,1,3.581.808,3.183,3.183,0,0,1,.7,1.539c.177,1.5.223,3.016.346,4.9Z" transform="translate(0)" fill="#003566"/>
  </g>
</svg>
