<svg xmlns="http://www.w3.org/2000/svg" width="112" height="112.01" viewBox="0 0 112 112.01">
  <g id="Group_1759" data-name="Group 1759" transform="translate(-585.215 -448.751)">
    <path id="Path_2224" data-name="Path 2224" d="M697.215,476.092c-.129.333-.269.663-.386,1a7.141,7.141,0,0,1-6.8,4.9q-48.821.009-97.643,0a7.15,7.15,0,0,1-7.159-7.159q-.026-9.458,0-18.92a7.145,7.145,0,0,1,7.159-7.156q48.822-.013,97.643,0a7.137,7.137,0,0,1,6.8,4.9c.117.339.254.669.383,1V476.1ZM641.274,452.24H593.059c-2.837,0-4.339,1.487-4.342,4.3q-.009,8.8,0,17.6c0,2.887,1.484,4.36,4.389,4.36h96.211c2.945,0,4.4-1.476,4.4-4.462V456.76c0-3.115-1.42-4.52-4.555-4.52H641.271Z" transform="translate(0)" fill="#003566"/>
    <path id="Path_2225" data-name="Path 2225" d="M697.215,607.871c-.129.333-.269.663-.386,1a7.141,7.141,0,0,1-6.8,4.9q-48.821.009-97.643,0a7.15,7.15,0,0,1-7.159-7.159q-.026-9.458,0-18.92a7.145,7.145,0,0,1,7.159-7.156q48.822-.013,97.643,0a7.142,7.142,0,0,1,6.8,4.9c.117.336.257.666.386,1v21.441ZM641.187,584.02H593.079c-2.9,0-4.362,1.476-4.365,4.383q0,8.748,0,17.5c0,2.9,1.473,4.38,4.368,4.38h96.211c2.963,0,4.421-1.464,4.421-4.438V588.563c0-3.127-1.417-4.544-4.535-4.544h-48Z" transform="translate(0 -93.274)" fill="#003566"/>
    <path id="Path_2226" data-name="Path 2226" d="M732.217,747.317c-1.008-.269-2.028-.5-3.024-.809a17.48,17.48,0,0,1,2.662-34c9.385-1.37,18.362,5.07,19.8,14.207a17.505,17.505,0,0,1-14.583,20.4,2.082,2.082,0,0,0-.479.2H732.22Zm-11.811-17.494a14,14,0,1,0,14.069-14.017,14.089,14.089,0,0,0-14.069,14.017Z" transform="translate(-93.187 -186.556)" fill="#003566"/>
    <path id="Path_2227" data-name="Path 2227" d="M679.335,503.145H641.82c-.292,0-.584.009-.874,0a1.743,1.743,0,1,1-.053-3.486c.254-.015.511,0,.766,0h75.465c.292,0,.584-.018.874.009a1.743,1.743,0,0,1,.053,3.474c-.324.032-.655.012-.985.012H679.335Z" transform="translate(-38.175 -36.027)" fill="#003566"/>
    <path id="Path_2228" data-name="Path 2228" d="M722.824,616.649c1.4,0,2.563-.012,3.725,0a1.751,1.751,0,1,1,.035,3.483c-1.189.018-2.381,0-3.755,0,.652,1.145,1.224,2.145,1.782,3.147.669,1.2.5,2.206-.45,2.755s-1.908.2-2.609-.993c-.57-.964-1.122-1.94-1.794-3.1-.652,1.128-1.216,2.118-1.8,3.1-.7,1.192-1.654,1.552-2.606,1s-1.128-1.552-.459-2.753c.561-1.005,1.134-2,1.788-3.156-1.367,0-2.557.012-3.746,0a1.752,1.752,0,1,1,0-3.486c1.186-.015,2.376,0,3.743,0-.657-1.157-1.236-2.151-1.791-3.159a1.775,1.775,0,1,1,3.039-1.779c.584.961,1.131,1.946,1.809,3.115.684-1.163,1.227-2.253,1.934-3.223a2.632,2.632,0,0,1,1.516-1.034,1.684,1.684,0,0,1,1.587,2.612c-.576,1.122-1.236,2.2-1.958,3.465Z" transform="translate(-89.038 -114.517)" fill="#003566"/>
    <path id="Path_2229" data-name="Path 2229" d="M794.75,620.1c.628,1.1,1.21,2.1,1.774,3.112.631,1.134.465,2.127-.432,2.682-.944.581-1.929.24-2.627-.923-.578-.964-1.148-1.937-1.724-2.9-.012-.02-.064-.015-.21-.044-.558.958-1.125,1.958-1.712,2.945-.7,1.172-1.68,1.511-2.627.926-.9-.552-1.067-1.546-.435-2.679.564-1.008,1.142-2.007,1.823-3.2-1.309,0-2.449.006-3.591,0-1.327-.009-2.063-.611-2.089-1.695-.029-1.14.722-1.785,2.1-1.794,1.125-.006,2.253,0,3.568,0-.634-1.116-1.2-2.113-1.762-3.112-.678-1.21-.535-2.206.394-2.773.97-.59,1.943-.219,2.679,1.031.552.938,1.093,1.885,1.762,3.045.59-1.017,1.087-1.911,1.625-2.782a3.91,3.91,0,0,1,.868-1.1,1.732,1.732,0,0,1,2.551,2.165c-.593,1.119-1.236,2.212-1.969,3.518,1.289,0,2.425-.006,3.559,0,1.376.009,2.133.652,2.11,1.782-.023,1.087-.76,1.7-2.08,1.706-1.055.009-2.113.006-3.167.009a2.769,2.769,0,0,0-.38.076Z" transform="translate(-139.92 -114.396)" fill="#003566"/>
    <path id="Path_2230" data-name="Path 2230" d="M866.547,616.534c1.405,0,2.6-.015,3.8,0a1.746,1.746,0,1,1,.02,3.483c-1.2.02-2.4.006-3.8.006.634,1.116,1.2,2.107,1.762,3.1.681,1.21.538,2.209-.389,2.776-.97.593-1.946.225-2.682-1.026-.564-.958-1.116-1.923-1.768-3.048-.672,1.16-1.239,2.159-1.826,3.147-.7,1.169-1.683,1.508-2.627.92-.9-.555-1.061-1.546-.43-2.679.564-1.008,1.142-2.007,1.82-3.2-1.347,0-2.525.009-3.705,0-1.224-.012-1.952-.649-1.975-1.7-.026-1.113.7-1.774,1.993-1.788,1.163-.012,2.323,0,3.676,0-.637-1.122-1.2-2.115-1.768-3.115-.678-1.207-.532-2.206.4-2.77.97-.587,1.94-.213,2.677,1.037.517.877,1.023,1.759,1.537,2.638a3.544,3.544,0,0,0,.254.307c.643-1.087,1.23-2.142,1.873-3.159a1.738,1.738,0,0,1,2.779-.447,1.694,1.694,0,0,1,.278,2.2c-.584,1.043-1.189,2.072-1.9,3.311Z" transform="translate(-190.776 -114.402)" fill="#003566"/>
    <path id="Path_2231" data-name="Path 2231" d="M650.957,620.027c.66,1.154,1.224,2.118,1.768,3.1.628,1.134.447,2.115-.473,2.662a1.821,1.821,0,0,1-2.568-.865c-.567-.932-1.107-1.879-1.66-2.817-.015-.026-.058-.032-.216-.117-.57.982-1.134,1.975-1.718,2.957-.7,1.183-1.666,1.537-2.615.979s-1.1-1.56-.43-2.761c.549-.979,1.113-1.952,1.788-3.135-1.292,0-2.428.006-3.562,0-1.385-.009-2.136-.643-2.121-1.777.018-1.09.751-1.7,2.072-1.712,1.128-.009,2.256,0,3.62,0-.628-1.084-1.183-2.034-1.727-2.992-.687-1.213-.535-2.191.406-2.761s1.946-.2,2.674,1.037c.5.845.991,1.7,1.49,2.542a1.967,1.967,0,0,0,.275.248c.587-1.014,1.151-2.007,1.733-2.989.7-1.186,1.66-1.54,2.612-.985s1.113,1.56.438,2.761c-.549.982-1.113,1.952-1.794,3.138,1.294,0,2.428-.006,3.562,0,1.382.006,2.139.646,2.118,1.777-.018,1.087-.757,1.7-2.075,1.715-1.128.009-2.256,0-3.6,0Z" transform="translate(-38.175 -114.403)" fill="#003566"/>
    <path id="Path_2232" data-name="Path 2232" d="M753.117,762.69c2.472-2.481,4.786-4.853,7.173-7.15a2.518,2.518,0,0,1,1.788-.713,1.916,1.916,0,0,1,1.312,1.2,2.324,2.324,0,0,1-.529,1.826c-2.048,2.177-4.2,4.257-6.308,6.37-.669.669-1.327,1.353-2.016,2a1.75,1.75,0,0,1-2.779.026q-3.16-3.1-6.262-6.265a1.76,1.76,0,1,1,2.516-2.449c1.683,1.66,3.331,3.357,5.1,5.146Z" transform="translate(-113.012 -216.635)" fill="#003566"/>
  </g>
</svg>
